<svg xmlns="http://www.w3.org/2000/svg" width="20" height="12" viewBox="0 0 20 12">
  <rect x="3" y="1" width="1" height="1" fill="#271d61"/>
  <rect x="4" y="1" width="1" height="1" fill="#261c61"/>
  <rect x="5" y="1" width="1" height="1" fill="#271c61"/>
  <rect x="6" y="1" width="1" height="1" fill="#271c60"/>
  <rect x="7" y="1" width="1" height="1" fill="#261c61"/>
  <rect x="8" y="1" width="1" height="1" fill="#271d60"/>
  <rect x="9" y="1" width="1" height="1" fill="#271c61"/>
  <rect x="10" y="1" width="1" height="1" fill="#271c61"/>
  <rect x="11" y="1" width="1" height="1" fill="#271d61"/>
  <rect x="12" y="1" width="1" height="1" fill="#271d61"/>
  <rect x="13" y="1" width="1" height="1" fill="#271d61"/>
  <rect x="14" y="1" width="1" height="1" fill="#271c61"/>
  <rect x="15" y="1" width="1" height="1" fill="#271c61"/>
  <rect x="2" y="2" width="1" height="1" fill="#271c61"/>
  <rect x="3" y="2" width="1" height="1" fill="#271d61"/>
  <rect x="4" y="2" width="1" height="1" fill="#271c60"/>
  <rect x="5" y="2" width="1" height="1" fill="#261c61"/>
  <rect x="6" y="2" width="1" height="1" fill="#271c61"/>
  <rect x="7" y="2" width="1" height="1" fill="#271c60"/>
  <rect x="8" y="2" width="1" height="1" fill="#271c61"/>
  <rect x="9" y="2" width="1" height="1" fill="#271c60"/>
  <rect x="10" y="2" width="1" height="1" fill="#271c61"/>
  <rect x="11" y="2" width="1" height="1" fill="#261c61"/>
  <rect x="12" y="2" width="1" height="1" fill="#271c61"/>
  <rect x="13" y="2" width="1" height="1" fill="#271c60"/>
  <rect x="14" y="2" width="1" height="1" fill="#271d61"/>
  <rect x="15" y="2" width="1" height="1" fill="#271d61"/>
  <rect x="16" y="2" width="1" height="1" fill="#271c60"/>
  <rect x="1" y="3" width="1" height="1" fill="#271c61"/>
  <rect x="2" y="3" width="1" height="1" fill="#271c60"/>
  <rect x="3" y="3" width="1" height="1" fill="#271d60"/>
  <rect x="4" y="3" width="1" height="1" fill="#271d60"/>
  <rect x="5" y="3" width="1" height="1" fill="#271d61"/>
  <rect x="6" y="3" width="1" height="1" fill="#271d61"/>
  <rect x="7" y="3" width="1" height="1" fill="#271c61"/>
  <rect x="8" y="3" width="1" height="1" fill="#271c61"/>
  <rect x="9" y="3" width="1" height="1" fill="#271c61"/>
  <rect x="10" y="3" width="1" height="1" fill="#271d61"/>
  <rect x="11" y="3" width="1" height="1" fill="#271d60"/>
  <rect x="12" y="3" width="1" height="1" fill="#271c60"/>
  <rect x="13" y="3" width="1" height="1" fill="#271c61"/>
  <rect x="14" y="3" width="1" height="1" fill="#271c60"/>
  <rect x="15" y="3" width="1" height="1" fill="#261c61"/>
  <rect x="16" y="3" width="1" height="1" fill="#261c60"/>
  <rect x="17" y="3" width="1" height="1" fill="#271c60"/>
  <rect x="1" y="4" width="1" height="1" fill="#271c61"/>
  <rect x="2" y="4" width="1" height="1" fill="#271d61"/>
  <rect x="3" y="4" width="1" height="1" fill="#271d61"/>
  <rect x="4" y="4" width="1" height="1" fill="#010001"/>
  <rect x="5" y="4" width="1" height="1" fill="#010000"/>
  <rect x="6" y="4" width="1" height="1" fill="#000000"/>
  <rect x="7" y="4" width="1" height="1" fill="#010101"/>
  <rect x="8" y="4" width="1" height="1" fill="#271d60"/>
  <rect x="9" y="4" width="1" height="1" fill="#261d60"/>
  <rect x="10" y="4" width="1" height="1" fill="#271c61"/>
  <rect x="11" y="4" width="1" height="1" fill="#000000"/>
  <rect x="12" y="4" width="1" height="1" fill="#000000"/>
  <rect x="13" y="4" width="1" height="1" fill="#000000"/>
  <rect x="14" y="4" width="1" height="1" fill="#000000"/>
  <rect x="15" y="4" width="1" height="1" fill="#271c61"/>
  <rect x="16" y="4" width="1" height="1" fill="#261c61"/>
  <rect x="17" y="4" width="1" height="1" fill="#271c61"/>
  <rect x="1" y="5" width="1" height="1" fill="#261c61"/>
  <rect x="2" y="5" width="1" height="1" fill="#261c61"/>
  <rect x="3" y="5" width="1" height="1" fill="#271c60"/>
  <rect x="4" y="5" width="1" height="1" fill="#010000"/>
  <rect x="5" y="5" width="1" height="1" fill="#010000"/>
  <rect x="6" y="5" width="1" height="1" fill="#010100"/>
  <rect x="7" y="5" width="1" height="1" fill="#000000"/>
  <rect x="8" y="5" width="1" height="1" fill="#261d60"/>
  <rect x="9" y="5" width="1" height="1" fill="#271d60"/>
  <rect x="10" y="5" width="1" height="1" fill="#271c61"/>
  <rect x="11" y="5" width="1" height="1" fill="#010000"/>
  <rect x="12" y="5" width="1" height="1" fill="#000101"/>
  <rect x="13" y="5" width="1" height="1" fill="#000000"/>
  <rect x="14" y="5" width="1" height="1" fill="#000000"/>
  <rect x="15" y="5" width="1" height="1" fill="#271d60"/>
  <rect x="16" y="5" width="1" height="1" fill="#271c61"/>
  <rect x="17" y="5" width="1" height="1" fill="#261c60"/>
  <rect x="1" y="6" width="1" height="1" fill="#271d61"/>
  <rect x="2" y="6" width="1" height="1" fill="#271c61"/>
  <rect x="3" y="6" width="1" height="1" fill="#261d61"/>
  <rect x="4" y="6" width="1" height="1" fill="#fefefe"/>
  <rect x="5" y="6" width="1" height="1" fill="#fffefe"/>
  <rect x="6" y="6" width="1" height="1" fill="#000101"/>
  <rect x="7" y="6" width="1" height="1" fill="#000000"/>
  <rect x="8" y="6" width="1" height="1" fill="#271d60"/>
  <rect x="9" y="6" width="1" height="1" fill="#271d60"/>
  <rect x="10" y="6" width="1" height="1" fill="#271d60"/>
  <rect x="11" y="6" width="1" height="1" fill="#fffeff"/>
  <rect x="12" y="6" width="1" height="1" fill="#fffeff"/>
  <rect x="13" y="6" width="1" height="1" fill="#000101"/>
  <rect x="14" y="6" width="1" height="1" fill="#000001"/>
  <rect x="15" y="6" width="1" height="1" fill="#271d61"/>
  <rect x="16" y="6" width="1" height="1" fill="#271d61"/>
  <rect x="17" y="6" width="1" height="1" fill="#271d60"/>
  <rect x="1" y="7" width="1" height="1" fill="#261c61"/>
  <rect x="2" y="7" width="1" height="1" fill="#261c61"/>
  <rect x="3" y="7" width="1" height="1" fill="#271c61"/>
  <rect x="4" y="7" width="1" height="1" fill="#fefeff"/>
  <rect x="5" y="7" width="1" height="1" fill="#fffefe"/>
  <rect x="6" y="7" width="1" height="1" fill="#000100"/>
  <rect x="7" y="7" width="1" height="1" fill="#010001"/>
  <rect x="8" y="7" width="1" height="1" fill="#261c60"/>
  <rect x="9" y="7" width="1" height="1" fill="#271d60"/>
  <rect x="10" y="7" width="1" height="1" fill="#271c61"/>
  <rect x="11" y="7" width="1" height="1" fill="#fffeff"/>
  <rect x="12" y="7" width="1" height="1" fill="#fefffe"/>
  <rect x="13" y="7" width="1" height="1" fill="#010000"/>
  <rect x="14" y="7" width="1" height="1" fill="#000100"/>
  <rect x="15" y="7" width="1" height="1" fill="#271c60"/>
  <rect x="16" y="7" width="1" height="1" fill="#261c61"/>
  <rect x="17" y="7" width="1" height="1" fill="#fffefe"/>
  <rect x="1" y="8" width="1" height="1" fill="#261c61"/>
  <rect x="2" y="8" width="1" height="1" fill="#271c61"/>
  <rect x="3" y="8" width="1" height="1" fill="#261d60"/>
  <rect x="4" y="8" width="1" height="1" fill="#271d61"/>
  <rect x="5" y="8" width="1" height="1" fill="#261d60"/>
  <rect x="6" y="8" width="1" height="1" fill="#271d60"/>
  <rect x="7" y="8" width="1" height="1" fill="#261c61"/>
  <rect x="8" y="8" width="1" height="1" fill="#261d60"/>
  <rect x="9" y="8" width="1" height="1" fill="#271d61"/>
  <rect x="10" y="8" width="1" height="1" fill="#271c60"/>
  <rect x="11" y="8" width="1" height="1" fill="#271c61"/>
  <rect x="12" y="8" width="1" height="1" fill="#261d61"/>
  <rect x="13" y="8" width="1" height="1" fill="#261d60"/>
  <rect x="14" y="8" width="1" height="1" fill="#271c60"/>
  <rect x="15" y="8" width="1" height="1" fill="#261c61"/>
  <rect x="16" y="8" width="1" height="1" fill="#8b7cff"/>
  <rect x="17" y="8" width="1" height="1" fill="#ffffff"/>
  <rect x="18" y="8" width="1" height="1" fill="#8b7dff"/>
  <rect x="2" y="9" width="1" height="1" fill="#271c60"/>
  <rect x="3" y="9" width="1" height="1" fill="#271d61"/>
  <rect x="4" y="9" width="1" height="1" fill="#271c61"/>
  <rect x="5" y="9" width="1" height="1" fill="#271c61"/>
  <rect x="6" y="9" width="1" height="1" fill="#261c61"/>
  <rect x="7" y="9" width="1" height="1" fill="#271c61"/>
  <rect x="8" y="9" width="1" height="1" fill="#271c60"/>
  <rect x="9" y="9" width="1" height="1" fill="#271c61"/>
  <rect x="10" y="9" width="1" height="1" fill="#271d61"/>
  <rect x="11" y="9" width="1" height="1" fill="#271c60"/>
  <rect x="12" y="9" width="1" height="1" fill="#261c61"/>
  <rect x="13" y="9" width="1" height="1" fill="#261c60"/>
  <rect x="14" y="9" width="1" height="1" fill="#261c61"/>
  <rect x="15" y="9" width="1" height="1" fill="#feffff"/>
  <rect x="16" y="9" width="1" height="1" fill="#fffeff"/>
  <rect x="17" y="9" width="1" height="1" fill="#feffff"/>
  <rect x="18" y="9" width="1" height="1" fill="#ffffff"/>
  <rect x="19" y="9" width="1" height="1" fill="#ffffff"/>
  <rect x="16" y="10" width="1" height="1" fill="#8b7cff"/>
  <rect x="17" y="10" width="1" height="1" fill="#ffffff"/>
  <rect x="18" y="10" width="1" height="1" fill="#8b7cfe"/>
  <rect x="17" y="11" width="1" height="1" fill="#ffffff"/>
</svg>